<svg xmlns="http://www.w3.org/2000/svg" viewBox="0 0 48 48">
  <circle cx="24" cy="24" r="22" fill="#222222"/>
  <circle cx="24" cy="24" r="13" fill="white"/>

  <path d="M21 17h5.5c2.5 0 4 1.3 4 3.2
           0 1.5-.8 2.4-2 2.8
           1.6.4 2.6 1.5 2.6 3.2
           0 2.2-1.7 3.8-4.5 3.8H21V17z"
        fill="#222222"/>

  <path d="M23.5 19.5v4h2.8c1.2 0 1.9-.7 1.9-2
           0-1.3-.7-2-1.9-2h-2.8z"
        fill="white"/>

  <path d="M23.5 25.5v4.5h3.2c1.4 0 2.2-.8 2.2-2.2
           0-1.4-.8-2.3-2.2-2.3h-3.2z"
        fill="white"/>
</svg>
